HIERARCHY
ROOT Hips
{
	OFFSET 0.000000 0.000000 0.000000
	CHANNELS 6 Xposition Yposition Zposition Xrotation Yrotation Zrotation
	JOINT LeftUpLeg_virtual
	{
		OFFSET 0.000000 0.000000 0.000000
		CHANNELS 3 Xrotation Yrotation Zrotation
		JOINT LeftUpLeg
		{
			OFFSET 13.026900 -6.336304 -1.092800
			CHANNELS 3 Xrotation Yrotation Zrotation
			JOINT LeftLeg
			{
				OFFSET 0.524474 -46.096886 9.782700
				CHANNELS 3 Xrotation Yrotation Zrotation
				JOINT LeftFoot
				{
					OFFSET -0.524474 -53.427422 -12.948200
					CHANNELS 3 Xrotation Yrotation Zrotation
					JOINT LeftToeBase
					{
						OFFSET 0.192200 -14.009700 16.364100
						CHANNELS 3 Xrotation Yrotation Zrotation
						JOINT LeftToe_End
						{
							OFFSET -1.784700 -0.561700 9.474800
							CHANNELS 3 Xrotation Yrotation Zrotation
							End Site
							{
								OFFSET 0 0 0
							}
						}
					}
				}
			}
		}
	}
	JOINT RightUpLeg_virtual
	{
		OFFSET 0.000000 0.000000 0.000000
		CHANNELS 3 Xrotation Yrotation Zrotation
		JOINT RightUpLeg
		{
			OFFSET -12.883000 -6.336304 -1.092800
			CHANNELS 3 Xrotation Yrotation Zrotation
			JOINT RightLeg
			{
				OFFSET -0.524587 -46.096825 9.782800
				CHANNELS 3 Xrotation Yrotation Zrotation
				JOINT RightFoot
				{
					OFFSET 0.524587 -53.427383 -12.948300
					CHANNELS 3 Xrotation Yrotation Zrotation
					JOINT RightToeBase
					{
						OFFSET -0.192200 -14.009700 16.364100
						CHANNELS 3 Xrotation Yrotation Zrotation
						JOINT RightToe_End
						{
							OFFSET 1.784700 -0.561700 9.474800
							CHANNELS 3 Xrotation Yrotation Zrotation
							End Site
							{
								OFFSET 0 0 0
							}
						}
					}
				}
			}
		}
	}
	JOINT Spine_virtual
	{
		OFFSET 0.000000 0.000000 0.000000
		CHANNELS 3 Xrotation Yrotation Zrotation
		JOINT Spine
		{
			OFFSET 0.072000 7.257294 -0.789700
			CHANNELS 3 Xrotation Yrotation Zrotation
			JOINT Spine1
			{
				OFFSET 0.000000 12.508769 -0.658067
				CHANNELS 3 Xrotation Yrotation Zrotation
				JOINT Spine1_split
				{
					OFFSET 0.000000 12.508769 -0.658067
					CHANNELS 3 Xrotation Yrotation Zrotation
					JOINT Spine2
					{
						OFFSET 0.000000 12.508769 -0.658067
						CHANNELS 3 Xrotation Yrotation Zrotation
						JOINT Neck_virtual
						{
							OFFSET 0.000000 0.000000 0.000000
							CHANNELS 3 Xrotation Yrotation Zrotation
							JOINT Neck
							{
								OFFSET 0.000000 14.033295 7.520400
								CHANNELS 3 Xrotation Yrotation Zrotation
								JOINT Head
								{
									OFFSET 0.000000 8.198502 5.703100
									CHANNELS 3 Xrotation Yrotation Zrotation
									JOINT HeadTop_End
									{
										OFFSET 0.000000 17.760803 13.332701
										CHANNELS 3 Xrotation Yrotation Zrotation
										End Site
										{
											OFFSET 0 0 0
										}
									}
								}
							}
						}
						JOINT LeftShoulder_virtual
						{
							OFFSET 0.000000 0.000000 0.000000
							CHANNELS 3 Xrotation Yrotation Zrotation
							JOINT LeftShoulder
							{
								OFFSET 6.292450 5.785301 -0.669000
								CHANNELS 3 Xrotation Yrotation Zrotation
								JOINT LeftShoulder_split
								{
									OFFSET 6.292450 5.785301 -0.669000
									CHANNELS 3 Xrotation Yrotation Zrotation
									JOINT LeftArm
									{
										OFFSET 13.907140 -6.093903 1.965100
										CHANNELS 3 Xrotation Yrotation Zrotation
										JOINT LeftForeArm
										{
											OFFSET 34.140198 0.000000 0.000000
											CHANNELS 3 Xrotation Yrotation Zrotation
											JOINT LeftHand
											{
												OFFSET 40.960209 0.000000 0.000000
												CHANNELS 3 Xrotation Yrotation Zrotation
												End Site
												{
													OFFSET 0 0 0
												}
											}
										}
									}
								}
							}
						}
						JOINT RightShoulder_virtual
						{
							OFFSET 0.000000 0.000000 0.000000
							CHANNELS 3 Xrotation Yrotation Zrotation
							JOINT RightShoulder
							{
								OFFSET -6.292450 5.785301 -0.669000
								CHANNELS 3 Xrotation Yrotation Zrotation
								JOINT RightShoulder_split
								{
									OFFSET -6.292450 5.785301 -0.669000
									CHANNELS 3 Xrotation Yrotation Zrotation
									JOINT RightArm
									{
										OFFSET -13.907140 -6.093903 1.965100
										CHANNELS 3 Xrotation Yrotation Zrotation
										JOINT RightForeArm
										{
											OFFSET -34.140198 0.000000 0.000000
											CHANNELS 3 Xrotation Yrotation Zrotation
											JOINT RightHand
											{
												OFFSET -40.960209 0.000000 0.000000
												CHANNELS 3 Xrotation Yrotation Zrotation
												End Site
												{
													OFFSET 0 0 0
												}
											}
										}
									}
								}
							}
						}
					}
				}
			}
		}
	}
}
MOTION
Frames: 6
Frame Time: 0.03333333
0.128312 100.912521 1.548996 0.000000 0.000000 0.000000 -0.148460 -61.570795 4.044748 -31.553005 11.384094 25.477142 37.768682 -4.046473 -8.852414 -5.734514 -3.774719 -8.537046 -0.231820 0.131212 0.767608 0.000000 0.000000 0.000000 -3.870996 -60.351756 2.296547 -27.999385 -11.719410 -25.110060 39.532380 1.376969 -6.736664 -11.881800 4.161936 22.814737 -2.462648 0.292522 0.336681 0.000000 0.000000 0.000000 -3.847314 -61.387500 0.347107 12.584841 2.530277 -2.728002 8.113557 0.739177 -5.561407 0.178355 0.079816 1.099418 0.000000 0.000000 0.000000 8.056537 0.359449 -4.371272 -20.961658 20.696597 9.538881 2.893549 27.082468 -2.089790 0.000000 0.000000 0.000000 10.009673 0.308431 -4.928762 -5.171686 -16.158916 -1.619865 -1.850354 -3.756943 1.247317 -23.916884 9.429242 -32.539728 4.103269 -42.044732 0.418806 0.000000 0.000000 0.000000 9.389581 0.607937 -5.383429 -5.425560 14.280245 1.766854 3.401003 -3.127250 3.427812 -32.573620 -22.602542 35.561793 164.372204 69.640588 -161.379707 0.000000 0.000000 0.000000 
-0.478885 100.644440 1.933701 0.000000 0.000000 0.000000 -0.641147 -61.443180 3.578907 -31.443469 12.001028 25.743801 38.299545 -4.788886 -8.779612 -6.483683 -3.949461 -8.922492 -0.613852 0.091918 0.899504 0.000000 0.000000 0.000000 -4.310544 -60.317735 1.734524 -27.707176 -11.258892 -25.240833 40.695421 1.322580 -6.701267 -12.629206 3.937188 21.929034 -1.052639 0.306704 0.401624 0.000000 0.000000 0.000000 -4.018910 -61.373443 0.226559 12.630743 2.336464 -2.667099 7.854775 0.733461 -5.574325 -0.651827 -0.652879 1.664957 0.000000 0.000000 0.000000 7.766110 0.349820 -4.383402 -20.964130 20.102109 9.841550 3.226669 26.116202 -2.037373 0.000000 0.000000 0.000000 9.730873 0.325653 -4.921500 -5.163843 -15.907867 -1.574445 -0.391867 -5.092948 0.958385 -25.301382 9.366877 -33.606184 5.376647 -41.778802 1.531010 0.000000 0.000000 0.000000 9.006424 0.605885 -5.342511 -5.503711 14.184552 1.658268 4.729590 -2.689535 1.597427 -30.956582 -21.884578 35.486743 166.649007 66.397068 -163.663463 0.000000 0.000000 0.000000 
-1.481163 100.348785 2.450180 0.000000 0.000000 0.000000 -2.004521 -61.323774 2.200438 -31.107403 12.350875 26.139950 39.428346 -5.734724 -8.620245 -7.886058 -3.794054 -9.248002 -1.031297 0.116772 0.977012 0.000000 0.000000 0.000000 -5.182354 -60.250547 0.527088 -26.595613 -10.593861 -25.486028 42.061620 1.523868 -6.685728 -13.385037 3.621371 21.732912 -0.842090 0.214327 0.461867 0.000000 0.000000 0.000000 -4.928564 -61.107954 -0.751353 12.519948 2.213546 -2.378831 7.457761 0.775392 -5.345578 -0.801486 -0.724998 2.081287 0.000000 0.000000 0.000000 7.283074 0.354499 -4.236724 -20.047597 19.060903 10.094063 3.263794 24.611412 -1.512059 0.000000 0.000000 0.000000 9.209826 0.371925 -4.668692 -5.100082 -14.782059 -1.052794 0.503842 -5.623369 0.350277 -25.330465 9.745526 -32.880104 6.608221 -44.467564 3.134760 0.000000 0.000000 0.000000 8.402967 0.566737 -5.090150 -5.537469 12.882798 0.783561 6.419373 -2.332549 0.444082 -25.463193 -20.379083 35.796414 162.810509 62.639883 -160.238383 0.000000 0.000000 0.000000 
-2.738890 100.244644 2.955273 0.000000 0.000000 0.000000 -3.963432 -61.187567 0.187631 -30.262755 12.375295 26.375926 40.447813 -6.702972 -8.347988 -9.489784 -3.339210 -9.406597 -1.573627 0.198362 0.999169 0.000000 0.000000 0.000000 -6.309909 -59.924508 -1.049587 -24.436788 -10.039011 -25.772240 42.722509 1.842848 -6.645923 -14.025352 3.159033 21.987514 -1.500948 0.045267 0.553335 0.000000 0.000000 0.000000 -6.174153 -60.474864 -2.261487 12.291738 2.159530 -1.968840 6.976783 0.837971 -4.909427 -0.143436 -0.213566 2.293846 0.000000 0.000000 0.000000 6.682168 0.390570 -3.926753 -18.300831 17.727549 10.291586 3.108998 22.931339 -0.748743 0.000000 0.000000 0.000000 8.474093 0.461403 -4.166896 -5.054768 -12.711426 -0.104666 0.861903 -5.444211 -0.007057 -23.628980 11.124328 -30.275363 7.628644 -50.207092 4.974034 0.000000 0.000000 0.000000 7.643689 0.502145 -4.643397 -5.626657 10.390071 -0.713586 7.719162 -2.099477 -0.278717 -17.602878 -18.540685 36.592394 155.284815 59.603468 -153.583975 0.000000 0.000000 0.000000 
-4.091354 100.578644 3.595638 0.000000 0.000000 0.000000 -6.118554 -61.003145 -2.086154 -28.628238 12.151481 26.287064 40.646077 -7.555321 -7.959430 -10.895021 -2.649630 -9.317546 -2.179647 0.303930 0.952955 0.000000 0.000000 0.000000 -7.490645 -59.327979 -2.658233 -20.997798 -9.924851 -25.866230 41.661647 1.930375 -6.442462 -14.467454 2.531000 22.120194 -1.843375 -0.154834 0.683702 0.000000 0.000000 0.000000 -7.498586 -59.612095 -3.970207 11.930636 2.105692 -1.549319 6.397606 0.889716 -4.318344 1.073637 0.432413 2.179540 0.000000 0.000000 0.000000 6.028130 0.434388 -3.470669 -15.689098 16.410248 10.326146 2.918773 21.310511 0.010138 0.000000 0.000000 0.000000 7.608376 0.540643 -3.456784 -5.152411 -9.750392 1.060733 0.544861 -4.528140 -0.451879 -20.667994 13.727115 -25.924302 7.713805 -58.543805 6.286799 0.000000 0.000000 0.000000 6.711057 0.425835 -4.013280 -5.875374 6.872540 -2.641203 7.914892 -2.470406 -0.184997 -9.264068 -16.578362 37.570921 145.279298 57.624913 -144.916397 0.000000 0.000000 0.000000 
-5.493893 101.521881 4.423931 0.000000 0.000000 0.000000 -8.057228 -60.598190 -4.172736 -26.236778 11.834881 25.860481 39.711317 -8.219447 -7.433749 -11.731073 -1.852421 -9.017153 -2.562970 0.422725 0.807236 0.000000 0.000000 0.000000 -8.640800 -58.462806 -4.162865 -16.415738 -10.498374 -25.504975 38.310285 1.623754 -5.978813 -14.527566 1.830997 21.866690 -1.392187 -0.327477 0.812110 0.000000 0.000000 0.000000 -8.608380 -58.492941 -5.486983 11.348843 1.976796 -1.207477 5.676821 0.876709 -3.656958 1.407929 0.940427 1.708758 0.000000 0.000000 0.000000 5.436172 0.466690 -2.927924 -12.257552 15.314905 10.077084 2.767474 19.885500 0.577126 0.000000 0.000000 0.000000 6.708838 0.592719 -2.636602 -5.466057 -6.099350 2.378684 0.114465 -3.123626 -0.816477 -17.497314 17.735305 -20.169550 5.318414 -67.962274 5.344677 0.000000 0.000000 0.000000 5.683990 0.308312 -3.255401 -6.369992 2.463605 -4.845113 7.167262 -3.151033 0.219094 -2.133422 -14.833882 38.486268 134.442657 56.035712 -135.640344 0.000000 0.000000 0.000000 
